<svg xmlns="http://www.w3.org/2000/svg" width="90" height="72" viewBox="0 0 90 72" fill="none">
    <mask id="mask0_2_36" style="mask-type:luminance" maskUnits="userSpaceOnUse" x="0" y="0"
        width="89" height="72">
        <path d="M88.5382 0H0V71.3455H88.5382V0Z" fill="white" />
    </mask>
    <g mask="url(#mask0_2_36)">
        <path
            d="M75.6438 56.2693V50.3566H74.4657V57.3384H78.6766V56.2693H75.6438ZM66.4366 51.382C66.761 51.3792 67.083 51.4409 67.3835 51.5638C67.6839 51.6866 67.9569 51.8681 68.1864 52.0977C68.4159 52.3272 68.5974 52.6001 68.7203 52.9006C68.8431 53.201 68.9049 53.5228 68.902 53.8475C68.902 54.5033 68.6428 55.1328 68.1811 55.5986C67.7195 56.0644 67.0924 56.3291 66.4366 56.3348C65.7729 56.3348 65.1355 56.0742 64.6621 55.6089C64.1886 55.1437 63.917 54.5112 63.9057 53.8475C63.9085 53.5189 63.9763 53.1942 64.1053 52.8923C64.2342 52.5901 64.4219 52.3165 64.6573 52.0872C64.8925 51.8581 65.1709 51.6777 65.4763 51.5566C65.7816 51.4357 66.108 51.3764 66.4366 51.382ZM66.4366 50.3129C65.7458 50.347 65.0806 50.583 64.5227 50.9915C63.9648 51.4001 63.5391 51.9633 63.298 52.6115C63.0571 53.2595 63.0115 53.964 63.1669 54.6377C63.3225 55.3115 63.6722 55.925 64.1727 56.402C64.6732 56.8789 65.3027 57.1988 65.9832 57.3216C66.6637 57.4444 67.3651 57.3648 68.0009 57.0929C68.6367 56.8211 69.1787 56.3688 69.5598 55.7919C69.941 55.215 70.1448 54.5389 70.1457 53.8475C70.143 53.3692 70.0442 52.8962 69.8546 52.457C69.6652 52.0178 69.389 51.6214 69.0427 51.2915C68.6965 50.9614 68.2872 50.7048 67.8393 50.5366C67.3915 50.3684 66.9144 50.2924 66.4366 50.3129ZM36.1093 57.3384V50.3566H34.9093V53.3893H31.222V50.3566H30.0438V57.3384H31.222V54.5457H34.9093V57.4475L36.1093 57.3384ZM22.4729 50.3129C21.5355 50.3129 20.6364 50.6854 19.9736 51.3482C19.3107 52.011 18.9383 52.91 18.9383 53.8475C18.9383 54.785 19.3107 55.6839 19.9736 56.3468C20.6364 57.0096 21.5355 57.382 22.4729 57.382C22.9776 57.3766 23.4766 57.2716 23.9406 57.0733C24.4049 56.8748 24.8256 56.5868 25.1784 56.2257L24.4802 55.462C23.9598 55.9724 23.2667 56.2684 22.5384 56.2911C21.8845 56.2911 21.2573 56.0313 20.795 55.5689C20.3326 55.1066 20.0729 54.4796 20.0729 53.8257C20.0729 53.1718 20.3326 52.5447 20.795 52.0824C21.2573 51.6201 21.8845 51.3602 22.5384 51.3602C22.9058 51.3696 23.2676 51.4538 23.6014 51.6076C23.9352 51.7612 24.2343 51.9816 24.4802 52.2548L25.1784 51.4038C24.4671 50.7072 23.5121 50.3156 22.5166 50.3129M11.8256 50.3129C10.3201 50.3129 9.27287 51.0766 9.27287 52.2766C9.27287 54.742 13.0474 53.8911 13.0474 55.4402C13.0474 55.9857 12.5674 56.2911 11.7383 56.2911C10.8558 56.2409 10.0201 55.8774 9.38196 55.2657L8.88014 56.2911C9.66119 56.9908 10.6681 57.3857 11.7165 57.4038C13.2656 57.4038 14.3565 56.6184 14.3565 55.3748C14.3565 52.8657 10.6038 53.6729 10.6038 52.1675C10.6038 51.6875 11.0401 51.4257 11.7383 51.4257C12.4659 51.4691 13.171 51.6942 13.7892 52.0802L14.2692 51.0329C13.5372 50.571 12.6911 50.3219 11.8256 50.3129Z"
            fill="white" />
        <path
            d="M2.61828 56.2907C2.96007 56.323 3.30481 56.2835 3.63047 56.1748C3.95611 56.0662 4.25548 55.8908 4.50937 55.6597C4.76327 55.4284 4.96612 55.147 5.10492 54.833C5.24371 54.519 5.3154 54.1796 5.3154 53.8361C5.3154 53.4929 5.24371 53.1534 5.10492 52.8395C4.96612 52.5253 4.76327 52.2438 4.50937 52.0128C4.25548 51.7817 3.95611 51.6063 3.63047 51.4974C3.30481 51.3888 2.96007 51.3493 2.61828 51.3816C2.2765 51.3493 1.93175 51.3888 1.60611 51.4974C1.28046 51.6063 0.981102 51.7817 0.727202 52.0128C0.473301 52.2438 0.270456 52.5253 0.131655 52.8395C-0.00714599 53.1534 -0.0788422 53.4929 -0.0788422 53.8361C-0.0788422 54.1796 -0.00714599 54.519 0.131655 54.833C0.270456 55.147 0.473301 55.4284 0.727202 55.6597C0.981102 55.8908 1.28046 56.0662 1.60611 56.1748C1.93175 56.2835 2.2765 56.323 2.61828 56.2907Z"
            fill="white" />
        <path d="M88.4727 52.7791H82.7127V54.9172H88.4727V52.7791Z" fill="white" />
        <path
            d="M18.0002 69.8173C18 69.8862 18.0134 69.9543 18.0396 70.018C18.0659 70.0815 18.1044 70.1395 18.1529 70.1882C18.2482 70.275 18.3732 70.3219 18.502 70.3191C18.6302 70.3178 18.7538 70.2715 18.8511 70.1882C18.903 70.1419 18.9438 70.0846 18.9702 70.0204C18.9967 69.9561 19.0082 69.8867 19.0039 69.8173C19.0016 69.7198 18.971 69.6249 18.9158 69.5443C18.8605 69.4641 18.7829 69.4014 18.6926 69.3643C18.6023 69.3273 18.5031 69.3174 18.4073 69.3358C18.3114 69.3543 18.223 69.4003 18.1529 69.4682C18.06 69.5614 18.0055 69.6859 18.0002 69.8173ZM18.5457 69.0318C18.6501 69.0275 18.7544 69.0445 18.8519 69.082C18.9495 69.1195 19.0383 69.1767 19.1129 69.25C19.1895 69.3233 19.2504 69.4115 19.292 69.509C19.3337 69.6063 19.3551 69.7113 19.3551 69.8173C19.3551 69.9233 19.3337 70.0283 19.292 70.1258C19.2504 70.2231 19.1895 70.3113 19.1129 70.3846C19.0436 70.4601 18.9593 70.5205 18.8654 70.5617C18.7715 70.603 18.6701 70.6246 18.5675 70.6246C18.463 70.623 18.3601 70.599 18.2659 70.5537C18.1717 70.5085 18.0885 70.4435 18.022 70.3627V70.5809H17.6729V68.3991H18.022V69.2718C18.0793 69.1852 18.1571 69.1141 18.2484 69.0646C18.3397 69.015 18.4418 68.9889 18.5457 68.9882"
            fill="white" />
        <path
            d="M19.9418 71.2154C19.828 71.1934 19.7223 71.1406 19.6364 71.0627V70.8009C19.7081 70.8183 19.7829 70.8183 19.8546 70.8009C19.8855 70.8146 19.9189 70.8218 19.9528 70.8218C19.9866 70.8218 20.0201 70.8146 20.0509 70.8009C20.0728 70.7448 20.0728 70.6824 20.0509 70.6263C20.0509 70.6263 19.8328 70.0809 19.3964 69.0554H19.7673L20.2473 70.19L20.7273 69.0554H21.0982L20.3128 70.8881C20.2668 70.9822 20.1996 71.0644 20.1164 71.1281C20.0158 71.15 19.9116 71.15 19.8109 71.1281"
            fill="white" />
        <path d="M22.9745 71.323V68.1157H23.7382V70.6684H25.2V71.323H22.9745Z" fill="white" />
        <path
            d="M27.9275 67.7895H27.2293L27.8402 66.9822L28.6038 67.2659L27.9275 67.7895ZM28.8657 68.1168V68.7495H27.1638V69.4041H28.6911V70.015H27.1638V70.6913H28.9311V71.3022H26.4002V68.1168H28.8657Z"
            fill="white" />
        <path
            d="M30.8509 70.6905C31.0248 70.6933 31.1972 70.6575 31.3556 70.586C31.5142 70.5142 31.6547 70.4084 31.7673 70.2759L32.2691 70.7341C32.0963 70.9274 31.8844 71.0819 31.6475 71.1871C31.4105 71.2924 31.154 71.3463 30.8945 71.345C30.4165 71.3607 29.9496 71.1973 29.5854 70.8868C29.4249 70.7359 29.2974 70.5532 29.211 70.3506C29.1246 70.1476 29.0812 69.9292 29.0836 69.7087C29.0766 69.4857 29.1203 69.2638 29.2108 69.0598C29.3016 68.8558 29.4371 68.6749 29.6073 68.5305C29.7764 68.3712 29.9751 68.2471 30.1922 68.1646C30.4095 68.0823 30.6408 68.0435 30.8727 68.0505C31.1369 68.0459 31.3994 68.0959 31.6433 68.1971C31.8875 68.2986 32.1078 68.4491 32.2909 68.6396L31.8109 69.1414C31.7027 69.0096 31.5661 68.9038 31.4112 68.832C31.2563 68.7602 31.0872 68.7242 30.9164 68.7268C30.6452 68.7188 30.3807 68.8122 30.1745 68.9887C29.9867 69.177 29.8813 69.432 29.8813 69.6978C29.8813 69.9637 29.9867 70.2188 30.1745 70.4068C30.3641 70.5849 30.6129 70.6859 30.8727 70.6905"
            fill="white" />
        <path
            d="M35.4109 69.6882C35.4161 69.5551 35.3937 69.4222 35.345 69.2983C35.2961 69.1743 35.222 69.062 35.1273 68.9682C35.0313 68.8689 34.9159 68.7906 34.7882 68.738C34.6606 68.6854 34.5236 68.6599 34.3855 68.6627C34.2511 68.6616 34.1177 68.688 33.9938 68.7406C33.8699 68.7932 33.7582 68.8706 33.6655 68.9682C33.5708 69.062 33.4968 69.1743 33.4479 69.2983C33.3991 69.4222 33.3766 69.5551 33.3818 69.6882C33.3759 69.8234 33.3975 69.9587 33.4453 70.0857C33.4931 70.2124 33.5662 70.3283 33.66 70.4263C33.7538 70.524 33.8664 70.6019 33.9912 70.6551C34.1158 70.7082 34.25 70.7354 34.3855 70.7354C34.5236 70.7383 34.6606 70.7125 34.7882 70.6599C34.9159 70.6074 35.0313 70.529 35.1273 70.43C35.2237 70.3329 35.2988 70.2168 35.3474 70.089C35.3963 69.9613 35.4179 69.8247 35.4109 69.6882ZM35.6727 70.8663C35.3191 71.1748 34.8657 71.3446 34.3964 71.3446C33.9271 71.3446 33.4737 71.1748 33.12 70.8663C32.9498 70.7219 32.8143 70.541 32.7236 70.337C32.633 70.133 32.5894 69.9111 32.5964 69.6882C32.594 69.4656 32.6396 69.2452 32.7299 69.0419C32.8202 68.8386 32.9533 68.6572 33.12 68.51C33.4796 68.2139 33.9308 68.0518 34.3964 68.0518C34.8622 68.0518 35.3134 68.2139 35.6727 68.51C35.8396 68.6572 35.9727 68.8386 36.0631 69.0419C36.1534 69.2452 36.199 69.4656 36.1964 69.6882C36.2033 69.9111 36.1599 70.133 36.0694 70.337C35.9786 70.541 35.8431 70.7219 35.6727 70.8663Z"
            fill="white" />
        <path d="M36.8291 71.323V68.1157H37.5927V70.6684H39.0546V71.323H36.8291Z" fill="white" />
        <path
            d="M42.0873 68.1157V68.7484H40.3636V69.403H41.9127V70.0139H40.3636V70.6902H42.1309V71.323H39.6218V68.1157H42.0873Z"
            fill="white" />
        <path
            d="M46.1457 70.43C46.2465 70.341 46.3248 70.2293 46.3741 70.104C46.4234 69.9788 46.4422 69.8437 46.4293 69.71C46.4374 69.5764 46.4162 69.4429 46.3671 69.3186C46.3182 69.1942 46.2425 69.082 46.1457 68.99C45.9072 68.7947 45.6017 68.7007 45.2948 68.7282H44.8584V70.6918H45.3602C45.502 70.7025 45.6445 70.6848 45.7793 70.6399C45.9142 70.5949 46.0388 70.5236 46.1457 70.43ZM46.7129 68.5318C46.8766 68.6793 47.0046 68.8619 47.0878 69.0659C47.1709 69.2699 47.2069 69.49 47.1929 69.71C47.201 69.9273 47.1646 70.1437 47.0858 70.3464C47.0068 70.5491 46.8875 70.7335 46.7348 70.8882C46.3128 71.1969 45.7942 71.3442 45.2729 71.3027H44.0948V68.1173H45.3166C45.8171 68.0799 46.3139 68.2274 46.7129 68.5318Z"
            fill="white" />
        <path
            d="M50.3347 68.1157V68.7484H48.6329V69.403H50.1602V70.0139H48.6329V70.6902H50.3784V71.323H47.8693V68.1157H50.3347Z"
            fill="white" />
        <path
            d="M54.4145 70.43C54.5075 70.3359 54.5791 70.2229 54.6242 70.0986C54.6696 69.9744 54.6873 69.8418 54.6764 69.71C54.6831 69.5784 54.6635 69.4471 54.6185 69.3234C54.5736 69.1996 54.5042 69.0862 54.4145 68.99C54.1663 68.7973 53.8551 68.7039 53.5418 68.7282H53.1273V70.6918H53.6073C53.8998 70.7099 54.1883 70.6163 54.4145 70.43ZM54.96 68.5318C55.1263 68.6782 55.2578 68.8599 55.3447 69.0639C55.4315 69.2677 55.4714 69.4885 55.4618 69.71C55.4657 69.9286 55.4252 70.1457 55.3427 70.3484C55.2602 70.5509 55.1374 70.7346 54.9818 70.8882C54.5599 71.1969 54.0412 71.3442 53.52 71.3027H52.3636V68.1173H53.5636C54.0641 68.0799 54.5609 68.2274 54.96 68.5318Z"
            fill="white" />
        <path
            d="M58.582 68.1157V68.7484H56.8802V69.403H58.4075V70.0139H56.8802V70.6902H58.6257V71.323H56.1166V68.1157H58.582Z"
            fill="white" />
        <path
            d="M60.1093 68.7497C60.077 68.7768 60.0508 68.8099 60.0321 68.8475C60.0131 68.885 60.0024 68.926 60.0002 68.9679C60 69.0157 60.012 69.0628 60.0347 69.1047C60.0576 69.1468 60.0908 69.1822 60.1311 69.2079L60.7638 69.4043C61.0355 69.4466 61.2912 69.5594 61.5057 69.7315C61.6025 69.8094 61.6791 69.9096 61.7286 70.0237C61.778 70.1378 61.7989 70.2622 61.7893 70.3861C61.7928 70.5222 61.7629 70.6571 61.702 70.7788C61.6412 70.9006 61.5513 71.0055 61.4402 71.0843C61.1718 71.2699 60.8498 71.362 60.5238 71.3461C59.983 71.3448 59.4622 71.1425 59.062 70.7788L59.5202 70.277C59.8067 70.5279 60.166 70.6809 60.5457 70.7134C60.6513 70.7518 60.7671 70.7518 60.8729 70.7134C60.9129 70.6931 60.9465 70.6617 60.9696 70.623C60.9927 70.5844 61.0045 70.5401 61.0038 70.4952C61.0021 70.4478 60.9894 70.4014 60.9668 70.3597C60.9438 70.318 60.9118 70.2822 60.8729 70.2552L60.3711 70.0806C60.058 70.0431 59.7587 69.931 59.4984 69.7534C59.3996 69.6722 59.3221 69.5681 59.2728 69.4503C59.2233 69.3325 59.2034 69.2044 59.2148 69.077C59.213 68.9413 59.2438 68.8071 59.3044 68.6856C59.3651 68.5641 59.4541 68.4589 59.5638 68.3788C59.8206 68.2056 60.1272 68.1214 60.4366 68.1388C60.6674 68.0967 60.9039 68.0967 61.1348 68.1388C61.3475 68.2054 61.5469 68.3088 61.7238 68.4443L61.3311 68.9679C61.068 68.7646 60.747 68.65 60.4148 68.6406C60.3144 68.6158 60.2094 68.6158 60.1093 68.6406"
            fill="white" />
        <path d="M63.2073 68.1157H62.4436V71.3011H63.2073V68.1157Z" fill="white" />
        <path
            d="M66.262 69.6868H67.0257V70.8214C66.8411 70.9996 66.6218 71.138 66.3818 71.2279C66.1416 71.318 65.8854 71.3579 65.6293 71.345C65.1644 71.3605 64.7112 71.1964 64.3638 70.8868C64.1958 70.7407 64.0621 70.5594 63.9716 70.3558C63.8812 70.1522 63.8363 69.9314 63.8402 69.7087C63.8332 69.4857 63.8766 69.2638 63.9674 69.0598C64.058 68.8558 64.1934 68.6749 64.3638 68.5305C64.5329 68.3712 64.7317 68.2471 64.9488 68.1646C65.1659 68.0823 65.3972 68.0435 65.6293 68.0505C66.089 68.045 66.5361 68.1993 66.8948 68.4868L66.502 69.0323C66.3818 68.9193 66.2411 68.8305 66.0875 68.7705C65.95 68.7495 65.8104 68.7495 65.6729 68.7705C65.5364 68.7635 65.3998 68.7851 65.2721 68.834C65.1443 68.8828 65.0282 68.9579 64.9311 69.0541C64.8303 69.1442 64.7505 69.2555 64.6977 69.3799C64.6449 69.5044 64.6202 69.6391 64.6257 69.7741C64.6217 69.9072 64.6449 70.0394 64.6935 70.1634C64.7424 70.2871 64.8157 70.3996 64.9093 70.4941C65.0987 70.6722 65.3476 70.7732 65.6075 70.7778C65.8346 70.7793 66.0589 70.7269 66.262 70.625V69.6868Z"
            fill="white" />
        <path
            d="M70.1018 68.1157H70.8654V71.323H70.1018L68.4654 69.3157V71.323H67.7018V68.1157H68.4218L70.1018 70.1666V68.1157Z"
            fill="white" />
        <path d="M25.942 68.1157L25.3966 68.923H24.9602L25.3093 68.1157H25.942Z" fill="white" />
        <path
            d="M9.40374 14.661H5.69465L7.63647 10.9083L9.40374 14.661ZM12.5019 21.2065H16.2765L8.20374 4.14468H7.22192L0.109192 18.0865H11.0183L12.5019 21.2065ZM21.8182 14.1156H28.3636V10.712H21.8182V7.57014H25.1564V4.14468H18.4801V21.2283H21.8182V14.1156ZM40.4945 9.27196C40.4945 9.49544 40.4507 9.71674 40.3652 9.92321C40.2796 10.1297 40.1542 10.3173 39.9962 10.4753C39.8383 10.6333 39.6506 10.7587 39.444 10.8442C39.2376 10.9297 39.0164 10.9738 38.7929 10.9738H35.8255V7.5265H38.8582C39.0846 7.52934 39.3083 7.57675 39.5162 7.66601C39.7244 7.75529 39.9127 7.88465 40.0708 8.04673C40.2288 8.20882 40.3534 8.40043 40.4374 8.61067C40.5212 8.82089 40.5631 9.04559 40.56 9.27196M43.9636 9.27196C43.9667 8.59862 43.8369 7.93134 43.5818 7.30817C43.3268 6.68499 42.9515 6.11816 42.4774 5.64001C42.0033 5.16189 41.4397 4.78179 40.8188 4.52148C40.1978 4.26117 39.5317 4.12572 38.8582 4.12286H32.4218V21.2065H35.8255V14.3774H37.5275L39.2727 17.8683H42.9164L41.0836 13.9192C41.9771 13.5153 42.7344 12.8617 43.2648 12.0371C43.7952 11.2126 44.0758 10.2523 44.0729 9.27196"
            fill="white" />
        <path
            d="M81.4909 14.6627H77.7818L79.7018 10.9099L81.4909 14.6627ZM72 18.0663H83.1491L84.6545 21.2299H88.3636L80.2909 4.1463H79.2873"
            fill="white" />
        <path
            d="M67.2654 8.28986L69.4473 5.75895C68.3367 4.88461 67.0331 4.28873 65.6452 4.02107C64.2574 3.75343 62.8257 3.82174 61.4694 4.22036C60.1134 4.61897 58.8724 5.33629 57.8502 6.31241C56.8281 7.28852 56.0542 8.49508 55.5934 9.8313C55.1326 11.1675 54.9984 12.5946 55.2017 13.9933C55.4051 15.392 55.9401 16.7218 56.7622 17.8715C57.5845 19.0212 58.6697 19.9575 59.9275 20.6022C61.1854 21.2468 62.5793 21.5811 63.9927 21.5771H64.6036V18.0862C63.8673 18.1512 63.1254 18.0596 62.4273 17.8173C61.7289 17.575 61.0896 17.1877 60.5518 16.6807C60.0137 16.1737 59.5894 15.5585 59.3062 14.8757C59.023 14.1929 58.8877 13.4578 58.9091 12.7189C58.9239 11.7582 59.1973 10.8192 59.7006 10.0008C60.204 9.18238 60.9187 8.51474 61.7694 8.06817C62.6201 7.62157 63.5755 7.41255 64.5351 7.46308C65.4945 7.51361 66.4226 7.82184 67.2218 8.35532"
            fill="white" />
        <path
            d="M12.2618 38.1602C12.7008 37.133 12.9236 36.0264 12.9164 34.9093C12.907 32.7181 12.0372 30.6181 10.4945 29.062C9.73252 28.2938 8.82462 27.6857 7.8242 27.2736C6.82379 26.8614 5.75105 26.6535 4.66909 26.662H0V39.7529H3.29455V29.9784H4.66909C5.92865 30.0619 7.10934 30.6211 7.9719 31.5427C8.83446 32.4646 9.31438 33.6796 9.31438 34.942C9.31438 36.2042 8.83446 37.4195 7.9719 38.3411C7.10934 39.2627 5.92865 39.8221 4.66909 39.9057V43.2002C5.77154 43.2022 6.86282 42.9794 7.87636 42.5457C8.8515 42.1246 9.73944 41.5252 10.4945 40.7784C11.2485 40.0291 11.8489 39.1396 12.2618 38.1602ZM16.9091 43.2002H27.8182V39.9057H20.2255V36.3057H26.5745V33.0111H20.2255V29.9784H24.5891V26.6838H16.9091V43.2002ZM35.8691 31.2875C35.8449 31.1199 35.8575 30.9489 35.9066 30.7867C35.9557 30.6246 36.0397 30.4754 36.1527 30.3493C36.5629 29.9956 37.0748 29.7818 37.6145 29.7384C38.7737 29.7471 39.8961 30.1468 40.8 30.8729L41.3891 31.2438L43.1127 28.3638L42.5673 27.9929C41.1347 26.9302 39.3982 26.3566 37.6145 26.3566C36.1776 26.3947 34.8072 26.971 33.7745 27.9711C33.3463 28.4175 33.0177 28.9499 32.8108 29.5329C32.604 30.1161 32.5235 30.7363 32.5745 31.3529C32.5994 32.1072 32.8119 32.8433 33.1929 33.4948C33.5738 34.1461 34.1112 34.6924 34.7564 35.0838C35.5193 35.568 36.3611 35.9151 37.2436 36.1093H37.44C39.1636 36.6984 40.1673 37.5275 40.1673 38.422C40.1341 38.8791 39.9288 39.307 39.5928 39.6187C39.2566 39.9305 38.8148 40.1031 38.3564 40.102C38.0948 40.1203 37.8325 40.1203 37.5709 40.102V43.4184H38.3564C39.6868 43.4081 40.9621 42.8854 41.9171 41.9587C42.8721 41.0323 43.4332 39.7734 43.4836 38.4438C43.4692 37.241 43.0019 36.0879 42.1745 35.2147C41.1615 34.1941 39.9087 33.444 38.5309 33.0329L38.0509 32.8802C36.5455 32.5093 35.8691 32.0293 35.8691 31.1784"
            fill="white" />
        <path d="M51.36 23.1264H47.7382V43.0464H51.36V23.1264Z" fill="white" />
        <path
            d="M66.4582 30.6543L68.8582 28.3634C67.3671 27.1628 65.5141 26.5017 63.6 26.4871C61.7206 26.4661 59.8868 27.0666 58.3835 28.1948C56.8804 29.3232 55.7919 30.9164 55.2873 32.7271H58.7782C59.0411 32.1836 59.3954 31.689 59.8255 31.2653C60.3131 30.7794 60.8915 30.3945 61.5279 30.1325C62.1644 29.8702 62.8462 29.7362 63.5346 29.738C64.5648 29.7471 65.5684 30.0663 66.4145 30.6543M71.6073 34.6907V33.0107H64.8V36.3053H68.5091C68.21 37.4247 67.5539 38.4159 66.6404 39.1287C65.7268 39.8413 64.6058 40.2367 63.4473 40.2543C62.7569 40.2519 62.0743 40.1095 61.4404 39.8359C60.8066 39.5621 60.235 39.1626 59.76 38.6616C59.1229 38.023 58.6704 37.2238 58.4509 36.3489H55.0909C55.4068 38.3339 56.419 40.1418 57.946 41.4491C59.4731 42.7562 61.4153 43.4773 63.4255 43.4834C64.541 43.4612 65.6407 43.2164 66.6602 42.7632C67.6798 42.3103 68.5988 41.6581 69.3628 40.8452C70.1269 40.0322 70.721 39.0749 71.1103 38.0293C71.4995 36.9836 71.6758 35.8709 71.6291 34.7562"
            fill="white" />
        <path
            d="M85.2218 35.9138L76.1018 26.6847H75.0764V43.2011H78.3709V33.5574L87.6655 43.2011H88.5382V30.0447H85.2218V35.9138Z"
            fill="white" />
        <path
            d="M48.8945 0H47.7818V1.11273L48.8945 0ZM51.2727 0H50.1818L47.7818 2.29091V3.46909L51.2727 0ZM51.4036 2.18182V1.04727L47.7818 4.66909V5.84727L51.4036 2.18182ZM51.4036 4.53818V3.40364L47.7818 7.02545V8.20364L51.4036 4.53818ZM51.4036 6.91636V5.78182L47.7818 9.40364V10.5818L51.4036 6.91636ZM51.4036 9.27273V8.13818L47.7818 11.76V12.9382L51.4036 9.27273ZM51.4036 11.6509V10.5164L47.7818 14.1382V15.2727L51.4036 11.6509ZM51.4036 14.0073V12.8727L47.7818 16.4945V17.6727L51.4036 14.0073ZM51.4036 16.3855V15.2727L47.7818 18.8727V20.0509L51.4036 16.3855ZM51.4036 18.7418V17.6073L47.8036 21.2291H48.9818L51.4036 18.7418ZM51.4036 21.12V19.9855L50.1818 21.2291H51.3818L51.4036 21.12Z"
            fill="white" />
        <path
            d="M50.8146 61.5716L57.36 55.0261C57.3934 54.6122 57.3934 54.1964 57.36 53.7825L49.5055 61.637C49.9296 61.6342 50.3527 61.5977 50.7709 61.5279M49.7455 45.9716H49.5055C49.1782 45.9716 48.8509 45.9716 48.5236 45.9716L41.7382 52.7788C41.7151 53.1057 41.7151 53.4338 41.7382 53.7607V54.0006L49.7455 45.9716ZM43.9636 48.2625C43.1023 49.111 42.4521 50.1497 42.0655 51.2952L46.9964 46.3643C45.8533 46.7559 44.8156 47.4055 43.9636 48.2625ZM51.8182 46.277C51.4955 46.1906 51.1676 46.1252 50.8364 46.0807L41.7818 55.1352C41.8209 55.462 41.894 55.7836 42 56.0952L51.8182 46.277ZM50.4 57.1861C50.1081 57.2649 49.8079 57.3087 49.5055 57.317H49.1346L45.8182 60.7206L46.6036 61.1134L50.4 57.1861ZM44.3346 59.6952C44.5418 59.8828 44.7604 60.0578 44.9891 60.2188L48.1746 57.0552C47.911 56.9393 47.662 56.7929 47.4327 56.6188L44.3346 59.6952ZM43.2 58.4734C43.37 58.6942 43.5521 58.9054 43.7455 59.1061L46.8218 56.0297C46.634 55.814 46.4795 55.5713 46.3636 55.3097L43.2 58.4734ZM42.3273 56.9897C42.4362 57.2551 42.5677 57.5105 42.72 57.7534L46.1236 54.5461C46.1023 54.3504 46.1023 54.1527 46.1236 53.957C46.0999 53.7613 46.0999 53.5636 46.1236 53.3679L42.3273 56.9897ZM53.4546 47.0407L52.6691 46.6261L48.96 50.4007H49.5491H50.1382L53.4546 47.0407ZM54.7855 48.0661C54.5904 47.8667 54.3788 47.6843 54.1527 47.5207L50.9891 50.6625C51.2498 50.789 51.492 50.9505 51.7091 51.1425L54.7855 48.0661ZM55.92 49.3097L55.3745 48.6552L52.3636 51.7752C52.5421 51.9936 52.689 52.236 52.8 52.4952L55.92 49.3097ZM56.7709 50.8152C56.6577 50.5449 56.5266 50.2824 56.3782 50.0297L52.9964 53.4552C53.0071 53.5859 53.0071 53.7172 52.9964 53.8479C52.9975 54.151 52.9532 54.4525 52.8655 54.7425L56.7709 50.8152ZM57.2727 52.6916C57.2727 52.3425 57.1418 52.0152 57.0546 51.7097L47.3891 61.3752C47.7118 61.4616 48.0397 61.5273 48.3709 61.5716L57.2727 52.6916ZM55.0909 59.3679C55.8607 58.6233 56.4631 57.7233 56.8582 56.7279L52.4946 61.0916C53.4969 60.6851 54.4089 60.0847 55.1782 59.3243"
            fill="white" />
    </g>
</svg>